<svg xmlns="http://www.w3.org/2000/svg">
	<symbol id="edit" viewBox="0 0 24 24">
		<path
			d="M20.219 1.886l1.562 1.562a2.667 2.667 0 010 3.771L6.333 22.667H1v-5.334L16.448 1.886a2.667 2.667 0 013.771 0zM14.333 4l5.334 5.333"
			stroke="currentColor"
			stroke-width="2"
			fill="none"
			fill-rule="evenodd"
			stroke-linecap="round"
			stroke-linejoin="round"
		/>
	</symbol>
	<symbol id="delete" viewBox="0 0 21 24">
		<path
			d="M19.667 2.667H1m12-1.334H7.667M2.333 8v13.333c0 .89.445 1.334 1.334 1.334H17c.889 0 1.333-.445 1.333-1.334V8"
			stroke="currentColor"
			stroke-width="2"
			fill="none"
			fill-rule="evenodd"
			stroke-linecap="round"
			stroke-linejoin="round"
		/>
	</symbol>
    
	<symbol id="insight" viewBox="0 0 29 26">
		<g fill="none" fill-rule="evenodd">
			<g stroke="currentColor" stroke-linecap="round" stroke-linejoin="round" stroke-width="2"><path d="M1 13v12h5.333V13zM22.333 6.333V25h5.334V6.333zM11.667 1v24H17V1z" /></g>
		</g>
	</symbol>
    
	<symbol id="settings" viewBox="0 0 26 26">
		<g fill="none" fill-rule="evenodd">
			<g stroke="currentColor" stroke-linecap="round" stroke-linejoin="round" stroke-width="2" transform="translate(1 1)">
				<path
					d="M2.713 12.94a9.444 9.444 0 010-1.88L.274 8.31l2.667-4.62 3.602.738a9.323 9.323 0 011.629-.943L9.333 0h5.334l1.161 3.485c.577.26 1.122.577 1.63.943l3.601-.737 2.667 4.618-2.44 2.751a9.444 9.444 0 010 1.88l2.44 2.75-2.667 4.62-3.602-.738a9.323 9.323 0 01-1.629.943L14.667 24H9.333l-1.161-3.485a9.323 9.323 0 01-1.63-.943l-3.601.737-2.667-4.618 2.44-2.751z"
				/>
				<circle cx="12" cy="12" r="1.333" />
			</g>
		</g>
	</symbol>
</svg>
