<?xml version="1.0" standalone="no"?>
<!DOCTYPE svg PUBLIC "-//W3C//DTD SVG 20010904//EN"
 "http://www.w3.org/TR/2001/REC-SVG-20010904/DTD/svg10.dtd">
<svg version="1.0" xmlns="http://www.w3.org/2000/svg"
 width="700.000000pt" height="700.000000pt" viewBox="0 0 700.000000 700.000000"
 preserveAspectRatio="xMidYMid meet">
<metadata>
Created by potrace 1.14, written by Peter Selinger 2001-2017
</metadata>
<g transform="translate(0.000000,700.000000) scale(0.100000,-0.100000)"
fill="#000000" stroke="none">
<path d="M2125 6990 c-123 -13 -191 -25 -320 -55 -295 -69 -559 -189 -815
-370 -87 -61 -93 -65 -164 -124 -152 -128 -358 -366 -468 -543 -146 -235 -268
-542 -314 -793 -40 -218 -38 -159 -40 -1575 -3 -1476 -4 -1431 54 -1695 78
-353 235 -677 470 -970 54 -68 220 -238 292 -301 264 -228 627 -414 970 -495
280 -67 201 -64 1690 -64 740 0 1377 3 1415 8 62 6 117 15 205 31 303 55 643
199 900 382 174 123 376 314 499 474 253 327 401 668 473 1085 21 117 21 155
24 1470 3 1509 5 1447 -66 1765 -6 28 -36 127 -64 215 -1 6 -9 24 -15 40 -7
17 -19 46 -26 65 -38 107 -163 335 -255 466 -102 146 -287 347 -409 444 -24
19 -48 40 -55 45 -85 75 -320 221 -454 281 -183 83 -372 146 -542 180 -195 38
-173 38 -1570 40 -740 1 -1376 -2 -1415 -6z m2686 -764 c376 -39 716 -205 981
-478 131 -136 221 -270 305 -455 31 -70 77 -198 87 -245 24 -107 37 -185 43
-253 9 -103 9 -2498 0 -2590 -4 -38 -9 -81 -11 -95 -3 -14 -7 -38 -9 -55 -9
-56 -66 -255 -77 -270 -4 -5 -11 -21 -15 -35 -4 -14 -25 -61 -47 -105 -243
-492 -729 -824 -1278 -872 -109 -10 -2513 -9 -2603 1 -70 8 -74 8 -167 27 -56
11 -67 14 -180 50 -74 24 -237 96 -261 116 -8 7 -19 13 -23 13 -8 0 -157 98
-166 109 -3 3 -22 19 -42 34 -96 71 -257 251 -333 371 -74 118 -154 294 -188
416 -14 49 -26 106 -42 195 -16 89 -19 284 -19 1400 0 1088 3 1314 18 1391 3
12 7 38 10 59 16 97 71 263 132 390 24 52 109 197 135 229 140 180 246 282
409 393 227 153 504 245 800 266 85 5 2482 -1 2541 -7z"/>
<path d="M2350 3920 c-164 -33 -308 -105 -427 -213 -57 -52 -173 -201 -173
-222 0 -6 -5 -16 -12 -23 -19 -19 -73 -177 -85 -252 -5 -25 -8 -223 -8 -440 0
-382 1 -398 23 -474 82 -284 270 -494 534 -596 140 -54 195 -59 618 -56 364 2
389 3 465 25 156 44 332 149 420 253 64 75 74 87 86 110 6 12 15 25 18 28 20
15 75 146 98 229 25 94 26 104 28 461 2 201 -1 397 -7 435 -42 313 -269 593
-566 699 -40 14 -85 28 -100 31 -15 3 -38 8 -52 11 -14 4 -194 8 -400 9 -318
2 -388 -1 -460 -15z"/>
</g>
</svg>
