<?xml version="1.0" standalone="no"?>
<!DOCTYPE svg PUBLIC "-//W3C//DTD SVG 20010904//EN"
 "http://www.w3.org/TR/2001/REC-SVG-20010904/DTD/svg10.dtd">
<svg version="1.0" xmlns="http://www.w3.org/2000/svg"
 width="700.000000pt" height="700.000000pt" viewBox="0 0 700.000000 700.000000"
 preserveAspectRatio="xMidYMid meet">
<metadata>
Created by potrace 1.11, written by Peter Selinger 2001-2013
</metadata>
<g transform="translate(0.000000,700.000000) scale(0.100000,-0.100000)"
fill="#000000" stroke="none">
<path d="M2165 6993 c-390 -43 -682 -132 -976 -298 -71 -41 -273 -176 -289
-194 -3 -4 -23 -19 -45 -36 -72 -53 -289 -278 -368 -382 -188 -247 -328 -529
-402 -810 -35 -133 -32 -119 -63 -293 -15 -85 -17 -241 -18 -1450 -3 -1476 -4
-1431 54 -1695 78 -353 234 -676 470 -970 103 -128 337 -349 448 -422 11 -7
44 -30 74 -51 195 -135 538 -284 750 -326 14 -3 36 -7 50 -10 257 -56 230 -55
1690 -52 1474 2 1397 -1 1655 62 55 13 107 26 116 28 23 6 89 29 184 64 492
183 947 577 1207 1047 137 249 220 486 270 780 21 117 21 154 24 1475 2 1255
1 1365 -16 1490 -23 171 -47 279 -107 464 -14 43 -32 90 -39 105 -8 14 -14 29
-14 33 0 33 -167 337 -248 453 -97 139 -326 385 -427 460 -22 17 -42 32 -45
35 -3 3 -23 19 -45 35 -241 180 -548 325 -837 396 -109 26 -118 28 -268 48
-126 18 -226 19 -1445 18 -720 0 -1323 -2 -1340 -4z m2646 -767 c438 -46 836
-269 1102 -619 75 -98 125 -184 184 -314 69 -153 116 -334 130 -497 9 -104 9
-2498 0 -2591 -4 -38 -9 -81 -11 -95 -3 -14 -7 -38 -9 -55 -5 -28 -34 -140
-56 -210 -26 -87 -98 -241 -154 -330 -125 -199 -334 -407 -527 -522 -191 -115
-463 -203 -673 -220 -110 -8 -2491 -8 -2592 0 -81 7 -89 8 -185 28 -134 28
-391 125 -441 166 -8 7 -19 13 -23 13 -10 0 -83 49 -167 112 -115 86 -196 168
-327 333 -25 31 -89 139 -122 204 -98 195 -144 355 -167 581 -9 87 -8 2495 0
2590 4 41 9 85 11 96 3 12 7 38 10 59 30 186 163 489 280 637 12 14 32 41 46
59 34 45 175 186 230 230 251 201 552 321 873 347 107 9 2502 7 2588 -2z"/>
<path d="M2350 3920 c-197 -40 -351 -126 -478 -265 -100 -109 -156 -212 -203
-371 -24 -77 -24 -87 -24 -494 0 -403 1 -417 23 -494 82 -283 271 -494 534
-596 140 -54 195 -59 618 -56 364 2 389 3 464 25 159 45 283 117 397 230 114
114 188 245 230 408 21 83 23 110 25 448 2 377 -3 445 -37 560 -62 206 -205
391 -385 497 -75 44 -213 97 -294 114 -19 3 -204 8 -410 9 -324 2 -387 0 -460
-15z"/>
</g>
</svg>
